<?xml version="1.0" standalone="no"?>
<!DOCTYPE svg PUBLIC "-//W3C//DTD SVG 20010904//EN"
 "http://www.w3.org/TR/2001/REC-SVG-20010904/DTD/svg10.dtd">
<svg version="1.0" xmlns="http://www.w3.org/2000/svg"
 width="264.000000pt" height="264.000000pt" viewBox="0 0 264.000000 264.000000"
 preserveAspectRatio="xMidYMid meet">
<metadata>
Created by potrace 1.11, written by Peter Selinger 2001-2013
</metadata>
<g transform="translate(0.000000,264.000000) scale(0.100000,-0.100000)"
fill="#000000" stroke="none">
<path d="M1182 2210 c-152 -21 -317 -78 -439 -152 -126 -75 -291 -244 -265
-270 9 -9 31 9 91 73 l80 84 1 -135 c0 -117 -3 -139 -20 -167 -16 -27 -26 -33
-54 -33 -52 0 -62 -21 -25 -56 28 -26 30 -33 25 -76 -3 -28 -1 -50 5 -54 6 -3
28 2 50 11 37 17 41 17 79 0 49 -22 61 -13 51 40 -7 36 -4 43 22 72 37 40 31
63 -18 63 -29 0 -39 6 -55 33 -18 28 -20 50 -20 185 l0 152 57 37 c51 32 193
103 207 103 3 0 6 -24 6 -53 0 -73 -30 -117 -81 -117 -46 0 -53 -23 -18 -56
28 -27 30 -33 25 -77 -6 -58 10 -69 60 -42 33 17 36 17 73 0 51 -23 62 -15 54
41 -5 41 -3 48 27 79 31 32 32 33 12 44 -12 6 -34 11 -49 11 -24 0 -33 7 -46
35 -17 36 -24 140 -9 149 13 8 155 34 225 41 l67 7 0 -389 c0 -437 1 -428 -71
-439 -22 -4 -42 -11 -45 -16 -4 -5 8 -25 26 -43 30 -31 32 -37 26 -78 -9 -56
2 -64 51 -38 37 19 38 19 76 0 48 -25 60 -17 54 35 -3 35 0 46 26 73 38 40 31
59 -26 67 -76 12 -77 15 -77 451 l0 375 24 0 c36 0 176 -20 219 -31 l37 -10 0
-164 c0 -196 -8 -220 -77 -231 -51 -7 -56 -28 -17 -65 23 -21 25 -30 21 -71
-7 -56 3 -63 56 -36 36 18 38 18 75 0 52 -27 62 -20 55 36 -4 41 -2 50 21 71
40 37 34 58 -17 65 -67 10 -77 39 -77 231 0 85 2 155 4 155 15 0 164 -69 219
-101 l67 -40 0 -172 c0 -154 -2 -175 -20 -204 -14 -23 -27 -33 -44 -33 -33 0
-56 -10 -56 -23 0 -6 13 -25 29 -42 27 -27 29 -34 21 -73 -9 -53 6 -64 56 -37
33 17 36 17 73 0 52 -23 63 -15 55 43 -5 43 -3 49 25 76 37 35 27 56 -25 56
-28 0 -38 6 -54 33 -18 28 -20 50 -20 187 l1 155 85 -89 c63 -67 88 -86 96
-78 9 9 0 26 -33 69 -124 160 -345 287 -589 339 -90 19 -281 26 -368 14z
m-137 -290 c28 0 32 -12 10 -30 -9 -7 -15 -29 -15 -52 l0 -39 -27 15 c-24 12
-31 12 -55 0 l-28 -15 0 40 c0 22 -6 44 -15 51 -22 18 -18 30 10 30 18 0 31 9
43 29 l16 29 18 -29 c12 -20 26 -29 43 -29z m625 -192 c0 -4 11 -8 24 -8 31 0
40 -14 21 -30 -9 -7 -15 -29 -15 -51 l0 -40 -28 15 c-23 12 -31 12 -52 0 -36
-19 -40 -17 -33 16 4 24 0 37 -17 55 l-23 25 32 6 c18 4 39 17 49 31 15 24 16
24 29 7 7 -10 13 -21 13 -26z m-960 -135 c6 -7 23 -13 37 -13 l26 0 -21 -23
c-13 -14 -22 -36 -22 -56 0 -28 -3 -32 -17 -25 -10 4 -27 7 -38 7 -11 0 -28
-3 -37 -7 -15 -7 -18 -3 -18 25 0 20 -9 42 -22 56 l-21 23 24 0 c30 0 43 9 59
39 12 24 13 24 26 5 7 -10 18 -25 24 -31z m1300 -30 c6 -7 23 -13 37 -13 l26
0 -21 -23 c-13 -14 -22 -36 -22 -56 0 -28 -3 -32 -17 -25 -10 4 -27 7 -38 7
-11 0 -28 -3 -37 -7 -15 -7 -18 -3 -18 25 0 20 -9 42 -22 56 l-21 23 24 0 c30
0 43 9 59 39 12 24 13 24 26 5 7 -10 18 -25 24 -31z m-662 -207 c6 -14 22 -26
43 -30 l32 -6 -22 -24 c-18 -19 -21 -31 -16 -55 8 -35 4 -37 -30 -15 -21 14
-26 14 -56 -1 l-32 -17 7 34 c5 27 2 39 -14 53 -28 25 -25 35 10 35 23 0 33 6
42 25 14 31 22 31 36 1z"/>
<path d="M847 1140 c-72 -23 -127 -60 -161 -108 -29 -42 -56 -114 -56 -148 0
-35 -12 -30 -63 26 -50 55 -58 58 -82 34 -27 -27 11 -107 104 -220 357 -431
1128 -409 1491 43 79 98 109 156 90 177 -22 27 -41 18 -122 -60 -44 -42 -83
-72 -87 -68 -4 5 -13 28 -20 51 -16 57 -55 101 -116 129 -53 25 -107 30 -150
14 -14 -5 -59 -41 -99 -79 -41 -39 -85 -72 -98 -75 -12 -3 -59 -7 -104 -8
l-81 -3 -17 47 c-10 30 -28 55 -49 70 -17 12 -66 57 -107 98 -101 103 -154
118 -273 80z m160 -35 c20 -8 81 -62 139 -121 111 -112 126 -142 82 -165 -13
-6 -35 -23 -50 -37 -21 -19 -28 -22 -28 -10 0 22 -36 51 -65 51 -61 0 -90 -83
-42 -120 l24 -17 -20 -34 c-17 -28 -24 -32 -45 -27 -62 15 -174 70 -252 124
l-85 57 1 51 c2 70 20 119 62 165 75 83 194 118 279 83z m813 -145 c49 -25 86
-80 95 -142 6 -40 4 -47 -12 -52 -10 -3 -38 3 -61 14 -60 29 -138 43 -199 36
-51 -6 -53 -5 -41 13 15 25 3 39 -20 25 -22 -14 -48 -69 -57 -121 -6 -38 -5
-43 13 -43 15 0 21 9 26 39 6 39 6 40 62 47 68 8 132 0 187 -24 l42 -19 -60
-30 c-90 -46 -197 -81 -292 -98 -99 -17 -304 -20 -263 -4 38 15 80 60 80 86 0
29 -26 31 -35 2 -7 -20 -60 -59 -81 -59 -6 0 -28 7 -49 16 l-37 15 48 52 c70
77 112 96 209 97 113 0 140 10 215 84 36 35 74 68 85 74 32 18 102 14 145 -8z
m-1105 -237 c191 -128 380 -180 625 -170 282 12 517 109 724 298 75 69 76 67
10 -27 -155 -220 -427 -358 -734 -371 -206 -9 -368 30 -533 128 -92 54 -221
184 -264 265 l-33 62 73 -72 c39 -40 99 -91 132 -113z m399 45 c7 -12 6 -21
-3 -32 -18 -22 -38 -20 -51 3 -7 15 -6 24 6 36 19 18 33 16 48 -7z m16 -153
c17 -9 30 -17 30 -19 0 -9 -74 11 -78 22 -5 16 13 15 48 -3z"/>
<path d="M755 1000 c-10 -16 4 -30 30 -30 49 0 38 -46 -12 -52 -30 -3 -42 -25
-19 -34 22 -8 61 2 80 22 24 23 20 70 -6 88 -25 18 -64 21 -73 6z"/>
<path d="M1053 913 c-18 -20 -33 -40 -33 -45 0 -9 22 -11 45 -2 31 12 55 86
27 83 -4 0 -22 -16 -39 -36z"/>
<path d="M872 744 c-31 -32 -35 -54 -11 -54 16 0 69 57 69 74 0 25 -22 17 -58
-20z"/>
</g>
</svg>
